# xmcd
#
# Track frame offsets: 
#        150
#        10019
#        20367
#        30442
#        40539
#        50085
#        60384
#        72740
#        83957
#        93160
#        104194
#        116037
#        127992
#        141924
#        151552
#        165707
#        175470
#        185547
#        194947
#        205018
#        215029
#        227547
#        238400
#        249047
#
# Disc length: 3444 seconds
#
# Revision: 0
# Processed by: cddbd v1.4PL0 Copyright (c) Steve Scherf et al.
# Submitted via: ExactAudioCopy v0.90b4
#
DISCID=500d7218
DTITLE=The Stanley Brothers - Riding That Midnight Train
DYEAR=1958
DGENRE=Bluegrass
TTITLE0=Holiday Pickin' (A.K.A. Wild Horse)
TTITLE1=That Happy Night
TTITLE2=Love Me, Darling, Just Tonight
TTITLE3=She's More To Be Pitied
TTITLE4=How Mountain Girls Can Love
TTITLE5=They Memory Of Your Smile
TTITLE6=Train 45
TTITLE7=Trust Each Other
TTITLE8=Ridin' That Midnight Train
TTITLE9=Shackles And Chains
TTITLE10=I'm A Man Of Constant Sorrow
TTITLE11=How Far To Little Rock?
TTITLE12=My Main Trail Is Yet To Come
TTITLE13=If I Lose
TTITLE14=Rank Stranger
TTITLE15=Let The Church Roll On
TTITLE16=Daybreak In Dixie
TTITLE17=Let Me Love You One More Time
TTITLE18=Finger Poppin' Time
TTITLE19=The Wild Side Of Life
TTITLE20=The Drunken Driver
TTITLE21=Steel Guitar Rag
TTITLE22=You're Still To Blame
TTITLE23=Hey, Hey, Hey
EXTD=
EXTT0=
EXTT1=
EXTT2=
EXTT3=
EXTT4=
EXTT5=
EXTT6=
EXTT7=
EXTT8=
EXTT9=
EXTT10=
EXTT11=
EXTT12=
EXTT13=
EXTT14=
EXTT15=
EXTT16=
EXTT17=
EXTT18=
EXTT19=
EXTT20=
EXTT21=
EXTT22=
EXTT23=
PLAYORDER=
